# xmcd CD database file
#
# Track frame offsets:
#	150
#	20671
#	38567
#	59114
#
# Disc length: 1025 seconds
#
# Revision: 0
# Processed by: cddbd v1.5PL3 Copyright (c) Steve Scherf et al.
# Submitted via: CDex 1.51
#
DISCID=3103ff04
DTITLE=Triumphal Records - Eternal Promise [MUSIC DISC]
DYEAR=1900
DGENRE=Vocal
TTITLE0=Eternal Promise
TTITLE1=Regalo
TTITLE2=Eternal Promise -instment version-
TTITLE3=Regalo -instment version-
EXTD=
EXTT0=
EXTT1=
EXTT2=
EXTT3=
PLAYORDER=
